<svg xmlns="http://www.w3.org/2000/svg" viewBox="0 0 5000 3000" id="youtube"><path d="M3725.33,1877.42c0,20.74.43,38.94-.16,57.11-.33,10.41,3,14.45,13.92,14.29,34.76-.55,69.53-.61,104.29,0,11.86.23,14.61-4.54,14.61-15.36q0-330.49.64-661c0-12.64-4.82-15.39-16.29-15.15-32.19.66-64.41.29-96.62.39-20,.07-20,.12-20,20q-.16,242.31-.29,484.64c0,28.89-36.18,72.76-64.81,78.72-21.3,4.43-33.62-4.84-34.93-26.73-.55-9.17-.3-18.39-.3-27.59q0-255.36.24-510.72c0-14-3.71-18.71-18-18.25-32.17,1-64.43,1.18-96.6.14-15.31-.5-18.47,5.09-18.43,19.34.44,175.86,0,351.73.57,527.58a437.8,437.8,0,0,0,6.34,71.63c9.37,55.38,44.89,84.62,97.08,81.62,32.67-1.87,59.46-17.36,83.4-38.24C3694.76,1906.93,3708.75,1893,3725.33,1877.42Z"></path><path d="M3225,1157.86c.31,7,.76,12.52.76,18q.3,169.49.48,339,.28,206.31.61,412.6c0,21.23.28,21.27,20.72,21.29q47.55.06,95.1,0c23,0,23.1-.07,23.07-23.22q-.26-368.88-.55-737.77c0-9.57,0-19.14,0-30.5h26c36.29-.1,72.59-.58,108.89-.07,12,.17,16-3.76,15.73-15.83-.69-34.24-.56-68.51-.06-102.76.16-10.88-2.43-15.48-14.54-15.08-29.62,1-59.29.44-88.94.55-104.81.39-209.62.92-314.43,1-11.58,0-16.45,2.76-15.92,15.44,1,23.48.1,47,.41,70.54.2,14.72-4.42,35.52,3.24,42.53,8.66,7.91,28.64,4,43.72,4.2C3160.88,1158.15,3192.43,1157.86,3225,1157.86Z"></path><path d="M2986.58 1255.73h128v689.85H2989.07v-72.51c-11.89 11.62-21.06 20.85-30.51 29.77-29.8 28.15-61.18 53-105.24 53.28-39.84.27-70.34-18.53-81.37-56.9-7.81-27.17-12.66-56.13-13-84.35-1.91-183-2.23-366.11-3-549.16 0-2.53.42-5.07.76-8.91h125.56c.26 5.49.77 11.36.79 17.22q1.18 263.84 2.28 527.69c0 5.11-.29 10.28.35 15.31 2.71 21.45 18.2 33.31 37.92 24.78 15.75-6.82 29.53-19.19 42.72-30.77 17.33-15.22 22.84-34.55 22.58-58.53-1.71-158-1.75-316-2.32-474C2986.56 1271.45 2986.58 1264.4 2986.58 1255.73zM2320.09 1024.14c-22.94 76.27-45.12 150.09-67.35 223.88q-47.09 156.32-94.07 312.64a83.5 83.5 0 00-3.28 24q.75 171 2 342c0 5.58 0 11.14 0 18.19H2024c0-5.83 0-11.3 0-16.78-.56-114.52-.86-229.06-2.06-343.58-.14-13.44-4.19-27.16-8.28-40.17q-79-251.49-158.63-502.79c-1.51-4.74-2.83-9.53-4.93-16.63 45.41 0 88.76-.33 132.07.57 3.85.09 9.58 7.7 11 12.76 20.63 74.35 40.68 148.86 60.88 223.32 10.63 39.19 21.29 78.37 35.12 117.76 6.75-25.86 13.61-51.67 20.2-77.58 22.31-87.64 44.72-175.26 66.47-263 2.67-10.8 6.43-15.11 18.11-14.91C2235.19 1024.58 2276.51 1024.14 2320.09 1024.14zM2298.9 1600c0-52.62-1.48-105.3.62-157.83a289.35 289.35 0 0114-76.52c19.84-61.21 61-101.21 126.16-111 72.87-10.91 137.89 3.52 183.07 67.84 22.92 32.63 31.92 70.73 35 109.76 2.66 33.56 3 67.36 3.23 101.06.53 73.58 1.27 147.18 0 220.74a330.92 330.92 0 01-10.49 77.16c-19.75 75.75-87.06 126.07-166.39 127-79.76.92-151.27-49.25-171.35-125.11-9-34.13-11.57-70.4-13.42-105.91-2.2-42.29-.52-84.79-.52-127.21zm237.14 6.76h-1.8c0-53.66.41-107.32-.27-161a156.78 156.78 0 00-6.06-42.23c-7.18-24.14-26.13-36.51-50.9-36-24.39.46-42.57 14.12-48.79 38.74a160.94 160.94 0 00-5.11 39.34q.33 158.68 2 317.37a170.43 170.43 0 006.57 45.19c7 24.13 26 36.68 50.64 36.53 23-.15 41.51-13.49 48.08-37.69 3.81-14.09 5.25-29.17 5.42-43.84C2536.42 1711 2536 1658.83 2536 1606.71zM4330.68 1451.55a587.27 587.27 0 00-15.24-121.21c-17.38-74.7-86.15-106.14-154.51-71-27.18 14-50.38 35.71-76.4 54.65 0-5.89 0-13.88 0-21.87.21-84.87.25-169.74.85-254.61.08-11.63-2.68-16.25-15.34-15.85-30.65 1-61.37 1.11-92 .16-14.46-.46-19.11 3.54-19.07 18.59.39 134 0 267.9-.2 401.86q-.32 243.12-.56 486.22c0 19.83.08 19.94 20.37 20q40.64.13 81.29-.07c26.4-.18 23.06 2.61 23.5-24.23.21-13 0-26.07 0-37.53 22.91 18 43.64 38.18 67.86 52.45 71.63 42.2 148 10.64 166.79-70 8.5-36.47 11.44-74.84 12.1-112.42C4331.94 1655 4332.59 1553.26 4330.68 1451.55zm-133.2 309.73a175.1 175.1 0 01-6.65 45.3c-8.29 29.7-30.6 41.17-60.43 32.68a124 124 0 01-18.51-7.22c-19.36-9.09-30-21.41-29.13-45.93 2.15-61.75.71-123.62.71-185.43h1.05c0-63.86.27-127.72-.23-191.58-.1-12 3.52-20.21 13.46-26.84 16.42-11 33.27-19.87 53.83-19 21.19.89 34 9.15 39.78 29.42 3.9 13.59 6.59 28.07 6.63 42.16Q4198.55 1598.06 4197.48 1761.28zM4565.09 1624.14q103.52-.17 207-.34c19.68 0 19.75-.08 19.84-20.41.17-44 1.36-88 0-131.86-.87-27.44-3.28-55.28-9.13-82-34.69-158.66-210.21-174.63-295.62-104.78-50.2 41-71 96.26-73.07 157.68-3.39 101.62-2.83 203.4-2.76 305.1 0 36.47 7 72.2 22.91 105.56 34.17 71.52 98.13 107.38 184.2 103.06 67.3-3.37 117.45-34.6 149.52-93.94 25.44-47.1 22-98.89 22.66-149.86 0-2.54-5.7-7.38-8.8-7.41-40.29-.51-80.58-.33-123.79-.33 0 16.22.67 30-.15 43.66-1.16 19.28-1.21 39-5.77 57.59-5.58 22.73-23.46 34.42-46.33 35.54-25.43 1.24-43.13-8.88-52.54-31.46-3.7-8.84-7-18.6-7.21-28-1.09-51.05-1.17-102.12-1.49-153.18 0-1.28 1.3-2.56 2.4-4.58zM4549.38 1402c3.16-28.84 20.66-39.56 53.91-39.53 31.1 0 48.32 10.72 51.36 38.76 4.14 38.21 4 76.88 5.83 117.28-38 0-72.55.23-107.08-.42-3-.06-8.42-6.13-8.35-9.31C4545.8 1473.13 4545.49 1437.31 4549.38 1402z"></path><path fill="#ec0000" d="M1671.81,1137.67c-17.2-64.77-67.88-115.78-132.23-133.09-116.64-31.46-584.34-31.46-584.34-31.46s-467.71,0-584.35,31.46c-64.34,17.31-115,68.32-132.23,133.09C207.41,1255.06,207.41,1500,207.41,1500s0,244.94,31.25,362.33c17.2,64.77,67.89,115.78,132.23,133.09,116.64,31.46,584.35,31.46,584.35,31.46s467.7,0,584.34-31.46c64.35-17.31,115-68.32,132.23-133.09,31.25-117.39,31.25-362.33,31.25-362.33S1703.06,1255.06,1671.81,1137.67Z"></path><polygon fill="#fff" points="802.27 1722.38 802.27 1277.62 1193.18 1500.01 802.27 1722.38"></polygon></svg>